<?xml version="1.0" encoding="UTF-8" standalone="no"?><svg xmlns:dc="http://purl.org/dc/elements/1.1/" xmlns:cc="http://creativecommons.org/ns#" xmlns:rdf="http://www.w3.org/1999/02/22-rdf-syntax-ns#" xmlns:svg="http://www.w3.org/2000/svg" xmlns="http://www.w3.org/2000/svg" xmlns:sodipodi="http://sodipodi.sourceforge.net/DTD/sodipodi-0.dtd" xmlns:inkscape="http://www.inkscape.org/namespaces/inkscape" id="Vrstva_1" data-name="Vrstva 1" viewBox="0 0 171.01 56.69" version="1.1" sodipodi:docname="FRI_H_T_sk_neg.svg" inkscape:version="1.0 (4035a4fb49, 2020-05-01)"><metadata id="metadata1502"><rdf:RDF><cc:Work rdf:about=""><dc:format>image/svg+xml</dc:format><dc:type rdf:resource="http://purl.org/dc/dcmitype/StillImage"/></cc:Work></rdf:RDF></metadata><sodipodi:namedview inkscape:document-rotation="0" pagecolor="#ffffff" bordercolor="#666666" borderopacity="1" objecttolerance="10" gridtolerance="10" guidetolerance="10" inkscape:pageopacity="0" inkscape:pageshadow="2" inkscape:window-width="1920" inkscape:window-height="1147" id="namedview1500" showgrid="false" inkscape:zoom="10.321034" inkscape:cx="85.505" inkscape:cy="28.345" inkscape:window-x="1912" inkscape:window-y="-8" inkscape:window-maximized="1" inkscape:current-layer="Vrstva_1"/><defs id="defs1387"><style id="style1385">.cls-1{fill:#fbb800;}.cls-2{fill:#0e306d;}</style></defs><rect class="cls-1" width="148" height="33" id="rect1389"/><polygon class="cls-2" points="62.76,26.75 59.95,26.75 59.95,28.75 62.5,28.75 62.5,29.3 59.95,29.3 59.95,31.89 59.31,31.89 59.31,26.2 62.76,26.2 " id="polygon1391" transform="translate(-12,-12)"/><path class="cls-2" d="m 52.76,19.51 a 1.32,1.32 0 0 0 0.44,-0.08 1.41,1.41 0 0 0 0.4,-0.22 1.17,1.17 0 0 0 0.29,-0.3 0.62,0.62 0 0 0 0.12,-0.35 v -0.73 h -0.66 a 3.22,3.22 0 0 0 -0.84,0.1 0.91,0.91 0 0 0 -0.49,0.29 0.76,0.76 0 0 0 -0.16,0.51 0.68,0.68 0 0 0 0.25,0.56 1,1 0 0 0 0.65,0.2 m -0.17,0.46 a 1.71,1.71 0 0 1 -0.7,-0.14 1.12,1.12 0 0 1 -0.46,-0.4 1.14,1.14 0 0 1 -0.17,-0.63 1.16,1.16 0 0 1 0.46,-1 2.71,2.71 0 0 1 1.5,-0.35 h 0.79 V 17.09 A 0.85,0.85 0 0 0 53.77,16.46 1,1 0 0 0 53.02,16.22 1.15,1.15 0 0 0 52.37,16.4 0.8,0.8 0 0 0 52,17 h -0.56 a 1.26,1.26 0 0 1 0.22,-0.65 1.18,1.18 0 0 1 0.54,-0.41 2.17,2.17 0 0 1 0.84,-0.15 2.12,2.12 0 0 1 0.85,0.15 1.13,1.13 0 0 1 0.52,0.44 1.39,1.39 0 0 1 0.18,0.73 v 2.83 h -0.53 v -0.78 a 1.45,1.45 0 0 1 -0.62,0.67 1.74,1.74 0 0 1 -0.82,0.19" id="path1393"/><polygon class="cls-2" points="71.19,31.89 70.52,31.89 69.2,29.77 68.32,30.67 68.32,31.89 67.71,31.89 67.71,26.04 68.32,26.04 68.32,29.95 70.35,27.82 71.07,27.82 69.61,29.35 " id="polygon1395" transform="translate(-12,-12)"/><path class="cls-2" d="M 61.42,20 A 2.43,2.43 0 0 1 60.81,19.91 1.37,1.37 0 0 1 60.32,19.64 1.07,1.07 0 0 1 59.98,19.2 1.4,1.4 0 0 1 59.86,18.6 v -2.78 h 0.61 v 2.69 a 1,1 0 0 0 0.26,0.7 1.34,1.34 0 0 0 1.57,0 0.92,0.92 0 0 0 0.3,-0.75 v -2.64 h 0.61 v 4.07 h -0.5 l -0.06,-0.77 a 1.1,1.1 0 0 1 -0.25,0.48 1.19,1.19 0 0 1 -0.42,0.28 1.64,1.64 0 0 1 -0.56,0.09" id="path1397"/><path class="cls-2" d="m 65.22,19.93 a 1.34,1.34 0 0 1 -0.48,-0.08 0.76,0.76 0 0 1 -0.29,-0.24 0.79,0.79 0 0 1 -0.14,-0.34 1.75,1.75 0 0 1 0,-0.4 V 14 h 0.6 v 4.77 a 0.78,0.78 0 0 0 0.13,0.49 0.42,0.42 0 0 0 0.33,0.17 h 0.23 v 0.4 h -0.18 -0.16" id="path1399"/><path class="cls-2" d="M 68.12,16.28 H 67.2 v 2.63 a 1,1 0 0 0 0,0.34 0.25,0.25 0 0 0 0.16,0.14 1.42,1.42 0 0 0 0.33,0 h 0.42 v 0.42 a 0.89,0.89 0 0 1 -0.23,0.05 h -0.35 a 1.37,1.37 0 0 1 -0.6,-0.11 0.6,0.6 0 0 1 -0.3,-0.33 1.45,1.45 0 0 1 -0.09,-0.54 v -2.6 h -0.66 v -0.46 h 0.67 l 0.15,-1.17 h 0.46 v 1.17 h 0.92 z" id="path1401"/><path class="cls-2" d="m 70.33,19.51 a 1.32,1.32 0 0 0 0.44,-0.08 1.41,1.41 0 0 0 0.4,-0.22 1.17,1.17 0 0 0 0.29,-0.3 0.7,0.7 0 0 0 0.12,-0.35 v -0.73 h -0.66 a 3.16,3.16 0 0 0 -0.84,0.1 0.91,0.91 0 0 0 -0.49,0.29 0.76,0.76 0 0 0 -0.16,0.51 0.68,0.68 0 0 0 0.25,0.56 1,1 0 0 0 0.65,0.2 m -0.17,0.46 a 1.71,1.71 0 0 1 -0.7,-0.14 1.06,1.06 0 0 1 -0.46,-0.4 1.29,1.29 0 0 1 0.29,-1.63 2.71,2.71 0 0 1 1.5,-0.35 h 0.79 v -0.34 a 0.85,0.85 0 0 0 -0.24,-0.63 1.06,1.06 0 0 0 -0.75,-0.24 1.21,1.21 0 0 0 -0.66,0.18 0.82,0.82 0 0 0 -0.35,0.56 H 69 a 1.26,1.26 0 0 1 0.22,-0.65 1.18,1.18 0 0 1 0.54,-0.41 2.17,2.17 0 0 1 0.84,-0.15 2.12,2.12 0 0 1 0.85,0.15 1.13,1.13 0 0 1 0.52,0.44 1.39,1.39 0 0 1 0.18,0.73 V 19.9 H 71.62 V 19.12 A 1.51,1.51 0 0 1 71,19.79 1.77,1.77 0 0 1 70.18,19.98" id="path1403"/><path class="cls-2" d="m 75.17,19.89 v -4.07 h 0.58 v 0.74 a 1.11,1.11 0 0 1 0.29,-0.47 1,1 0 0 1 0.42,-0.26 1.27,1.27 0 0 1 0.47,-0.09 h 0.2 a 0.26,0.26 0 0 1 0.14,0 v 0.6 a 0.34,0.34 0 0 0 -0.16,0 h -0.18 a 2,2 0 0 0 -0.42,0 1,1 0 0 0 -0.37,0.15 0.73,0.73 0 0 0 -0.26,0.29 1,1 0 0 0 -0.1,0.46 v 2.61 z" id="path1405"/><path class="cls-2" d="m 78.07,19.89 h 0.6 v -4.07 h -0.6 z m 0,-5 h 0.64 V 14.2 H 78 Z" id="path1407"/><path class="cls-2" d="m 81.1,19.51 a 1.31,1.31 0 0 0 0.43,-0.08 1.41,1.41 0 0 0 0.4,-0.22 1.17,1.17 0 0 0 0.29,-0.3 0.62,0.62 0 0 0 0.12,-0.35 v -0.73 h -0.66 a 3.22,3.22 0 0 0 -0.84,0.1 1,1 0 0 0 -0.49,0.29 0.76,0.76 0 0 0 -0.16,0.51 0.68,0.68 0 0 0 0.25,0.56 1.06,1.06 0 0 0 0.66,0.2 m -0.18,0.46 a 1.67,1.67 0 0 1 -0.69,-0.14 1.09,1.09 0 0 1 -0.47,-0.4 1.14,1.14 0 0 1 -0.17,-0.63 1.16,1.16 0 0 1 0.46,-1 2.71,2.71 0 0 1 1.5,-0.35 h 0.79 V 17.09 A 0.85,0.85 0 0 0 82.1,16.46 1,1 0 0 0 81.35,16.22 1.15,1.15 0 0 0 80.7,16.4 0.8,0.8 0 0 0 80.34,16.96 H 79.78 A 1.26,1.26 0 0 1 80,16.3 a 1.18,1.18 0 0 1 0.54,-0.41 2.17,2.17 0 0 1 0.84,-0.15 2.12,2.12 0 0 1 0.85,0.15 1.13,1.13 0 0 1 0.52,0.44 1.39,1.39 0 0 1 0.18,0.73 v 2.83 H 82.4 v -0.78 a 1.45,1.45 0 0 1 -0.62,0.67 1.74,1.74 0 0 1 -0.82,0.19" id="path1409"/><path class="cls-2" d="m 85.64,19.48 a 1.07,1.07 0 0 0 1,-0.4 2.23,2.23 0 0 0 0.28,-1.28 2.32,2.32 0 0 0 -0.13,-0.84 1,1 0 0 0 -0.38,-0.54 1.21,1.21 0 0 0 -0.7,-0.19 1.11,1.11 0 0 0 -0.87,0.38 1.78,1.78 0 0 0 -0.33,1.19 2.17,2.17 0 0 0 0.3,1.23 1,1 0 0 0 0.88,0.45 m -0.09,0.49 a 1.56,1.56 0 0 1 -1.25,-0.54 2.38,2.38 0 0 1 -0.47,-1.59 2.85,2.85 0 0 1 0.19,-1.1 1.61,1.61 0 0 1 0.55,-0.74 1.63,1.63 0 0 1 0.94,-0.26 1.82,1.82 0 0 1 0.55,0.08 1.51,1.51 0 0 1 0.4,0.21 1.64,1.64 0 0 1 0.27,0.24 2.43,2.43 0 0 1 0.14,0.22 V 14 h 0.62 v 5.85 H 87 v -0.79 l -0.12,0.26 a 1.58,1.58 0 0 1 -0.24,0.3 1.42,1.42 0 0 1 -0.42,0.25 1.83,1.83 0 0 1 -0.62,0.1" id="path1411"/><path class="cls-2" d="m 89,17.56 h 2.36 a 1.83,1.83 0 0 0 -0.12,-0.68 1.06,1.06 0 0 0 -1,-0.66 1.15,1.15 0 0 0 -0.69,0.2 1.17,1.17 0 0 0 -0.39,0.51 1.51,1.51 0 0 0 -0.13,0.63 m 0,0.44 a 2,2 0 0 0 0.13,0.74 1.3,1.3 0 0 0 0.41,0.54 1.24,1.24 0 0 0 0.71,0.2 1.29,1.29 0 0 0 0.72,-0.2 0.86,0.86 0 0 0 0.37,-0.55 H 92 a 1.32,1.32 0 0 1 -0.33,0.68 1.42,1.42 0 0 1 -0.6,0.42 2,2 0 0 1 -0.74,0.14 1.92,1.92 0 0 1 -1,-0.25 1.68,1.68 0 0 1 -0.66,-0.71 2.41,2.41 0 0 1 -0.24,-1.12 2.65,2.65 0 0 1 0.22,-1.13 1.61,1.61 0 0 1 0.63,-0.75 1.74,1.74 0 0 1 1,-0.27 1.79,1.79 0 0 1 1,0.24 1.68,1.68 0 0 1 0.6,0.69 2.69,2.69 0 0 1 0.2,1.07 V 18 Z" id="path1413"/><path class="cls-2" d="m 92.89,19.89 v -4.07 h 0.59 v 0.59 a 1.43,1.43 0 0 1 0.29,-0.32 1.27,1.27 0 0 1 0.43,-0.24 1.76,1.76 0 0 1 0.58,-0.09 1.72,1.72 0 0 1 0.72,0.15 1.23,1.23 0 0 1 0.52,0.49 1.57,1.57 0 0 1 0.19,0.83 v 2.66 H 95.6 v -2.6 a 1,1 0 0 0 -0.27,-0.77 1,1 0 0 0 -0.69,-0.25 1.5,1.5 0 0 0 -0.56,0.1 1,1 0 0 0 -0.42,0.29 0.73,0.73 0 0 0 -0.15,0.48 v 2.75 z" id="path1415"/><path class="cls-2" d="m 97.31,19.89 h 0.59 v -4.07 h -0.59 z m 0,-5 h 0.64 V 14.2 h -0.64 z" id="path1417"/><path class="cls-2" d="m 100.33,19.51 a 1.32,1.32 0 0 0 0.44,-0.08 1.41,1.41 0 0 0 0.4,-0.22 1.17,1.17 0 0 0 0.29,-0.3 0.7,0.7 0 0 0 0.12,-0.35 v -0.73 h -0.66 a 3.3,3.3 0 0 0 -0.85,0.1 0.91,0.91 0 0 0 -0.48,0.29 0.76,0.76 0 0 0 -0.16,0.51 0.68,0.68 0 0 0 0.25,0.56 1,1 0 0 0 0.65,0.2 m -0.17,0.46 a 1.68,1.68 0 0 1 -0.7,-0.14 1.08,1.08 0 0 1 -0.63,-1 1.14,1.14 0 0 1 0.46,-1 2.71,2.71 0 0 1 1.5,-0.35 h 0.79 v -0.34 a 0.82,0.82 0 0 0 -0.25,-0.63 1,1 0 0 0 -0.74,-0.24 1.21,1.21 0 0 0 -0.66,0.18 0.82,0.82 0 0 0 -0.35,0.56 H 99 a 1.26,1.26 0 0 1 0.22,-0.65 1.18,1.18 0 0 1 0.54,-0.41 2.46,2.46 0 0 1 1.69,0 1.13,1.13 0 0 1 0.52,0.44 1.39,1.39 0 0 1 0.18,0.73 v 2.83 h -0.53 v -0.78 a 1.51,1.51 0 0 1 -0.62,0.67 1.77,1.77 0 0 1 -0.82,0.19" id="path1419"/><path class="cls-2" d="m 48.44,28 a 1.31,1.31 0 0 0 0.44,-0.07 1.71,1.71 0 0 0 0.4,-0.22 1.21,1.21 0 0 0 0.29,-0.31 0.67,0.67 0 0 0 0.12,-0.34 V 26.33 H 49 a 3.25,3.25 0 0 0 -0.85,0.11 1,1 0 0 0 -0.48,0.28 0.76,0.76 0 0 0 -0.16,0.51 0.66,0.66 0 0 0 0.25,0.56 1,1 0 0 0 0.65,0.2 m -0.17,0.46 a 1.54,1.54 0 0 1 -0.7,-0.14 1,1 0 0 1 -0.46,-0.39 1.1,1.1 0 0 1 -0.17,-0.63 1.13,1.13 0 0 1 0.46,-1 A 2.79,2.79 0 0 1 48.9,26 h 0.79 v -0.34 a 0.84,0.84 0 0 0 -0.25,-0.64 1.06,1.06 0 0 0 -0.74,-0.23 1.21,1.21 0 0 0 -0.66,0.18 0.8,0.8 0 0 0 -0.35,0.56 h -0.56 a 1.27,1.27 0 0 1 0.22,-0.66 1.34,1.34 0 0 1 0.54,-0.41 2.34,2.34 0 0 1 0.84,-0.14 2.12,2.12 0 0 1 0.85,0.15 1,1 0 0 1 0.52,0.44 1.33,1.33 0 0 1 0.18,0.72 v 2.84 h -0.53 v -0.79 a 1.48,1.48 0 0 1 -0.62,0.68 1.89,1.89 0 0 1 -0.82,0.18" id="path1421"/><path class="cls-2" d="M 53.36,28.42 H 54 v -4.07 h -0.6 z m 0,-5 H 54 v -0.68 h -0.64 z" id="path1423"/><path class="cls-2" d="m 55.1,28.42 v -4.07 h 0.59 v 0.59 a 1.23,1.23 0 0 1 0.28,-0.33 1.43,1.43 0 0 1 0.44,-0.24 1.76,1.76 0 0 1 0.58,-0.09 1.73,1.73 0 0 1 0.72,0.16 1.15,1.15 0 0 1 0.52,0.48 1.63,1.63 0 0 1 0.19,0.84 v 2.66 h -0.61 v -2.61 a 1,1 0 0 0 -0.27,-0.76 1,1 0 0 0 -0.69,-0.25 1.69,1.69 0 0 0 -0.56,0.09 1.06,1.06 0 0 0 -0.42,0.29 0.76,0.76 0 0 0 -0.15,0.48 v 2.76 z" id="path1425"/><path class="cls-2" d="m 61.61,24.35 v 0.46 h -1 v 3.61 H 60 V 24.81 H 59.11 V 24.35 H 60 V 23.7 a 1,1 0 0 1 0.24,-0.73 1,1 0 0 1 0.72,-0.24 h 0.72 v 0.44 H 61 a 0.4,0.4 0 0 0 -0.35,0.14 0.82,0.82 0 0 0 -0.09,0.42 v 0.62 z" id="path1427"/><path class="cls-2" d="m 63.9,28 a 1.08,1.08 0 0 0 0.65,-0.19 1.16,1.16 0 0 0 0.41,-0.55 2.31,2.31 0 0 0 0.15,-0.88 2.37,2.37 0 0 0 -0.13,-0.83 1.2,1.2 0 0 0 -0.39,-0.58 1.09,1.09 0 0 0 -0.69,-0.21 1.17,1.17 0 0 0 -0.66,0.19 1.08,1.08 0 0 0 -0.42,0.55 2.31,2.31 0 0 0 -0.15,0.88 2.37,2.37 0 0 0 0.13,0.83 1.26,1.26 0 0 0 0.4,0.58 1.1,1.1 0 0 0 0.7,0.21 m 0,0.49 a 1.91,1.91 0 0 1 -1,-0.23 1.58,1.58 0 0 1 -0.64,-0.71 2.51,2.51 0 0 1 -0.23,-1.15 2.76,2.76 0 0 1 0.21,-1.12 1.7,1.7 0 0 1 0.62,-0.75 1.87,1.87 0 0 1 1,-0.26 1.85,1.85 0 0 1 1,0.24 1.59,1.59 0 0 1 0.63,0.72 2.68,2.68 0 0 1 0.23,1.17 2.65,2.65 0 0 1 -0.21,1.09 1.59,1.59 0 0 1 -0.61,0.74 1.73,1.73 0 0 1 -1,0.26" id="path1429"/><path class="cls-2" d="m 66.6,28.42 v -4.07 h 0.58 v 0.73 a 1.13,1.13 0 0 1 0.29,-0.46 1.17,1.17 0 0 1 0.42,-0.27 1.55,1.55 0 0 1 0.47,-0.08 h 0.2 a 0.53,0.53 0 0 1 0.15,0 v 0.59 h -0.17 -0.18 a 1.49,1.49 0 0 0 -0.42,0 1.2,1.2 0 0 0 -0.37,0.15 0.83,0.83 0 0 0 -0.26,0.3 0.88,0.88 0 0 0 -0.1,0.45 v 2.62 z" id="path1431"/><path class="cls-2" d="M 69.45,28.42 V 24.35 H 70 v 0.59 a 1.54,1.54 0 0 1 0.45,-0.47 1.29,1.29 0 0 1 0.76,-0.2 1.43,1.43 0 0 1 0.46,0.07 1.37,1.37 0 0 1 0.43,0.23 0.87,0.87 0 0 1 0.29,0.37 1.36,1.36 0 0 1 0.52,-0.49 1.44,1.44 0 0 1 0.73,-0.18 1.72,1.72 0 0 1 0.44,0.06 1.26,1.26 0 0 1 0.43,0.22 1.16,1.16 0 0 1 0.33,0.46 2,2 0 0 1 0.12,0.75 v 2.66 h -0.61 v -2.61 a 1.3,1.3 0 0 0 -0.13,-0.62 0.64,0.64 0 0 0 -0.33,-0.3 1,1 0 0 0 -0.43,-0.09 1.16,1.16 0 0 0 -0.43,0.08 0.84,0.84 0 0 0 -0.38,0.26 0.77,0.77 0 0 0 -0.16,0.52 v 2.76 H 71.87 V 25.57 A 0.69,0.69 0 0 0 71.74,25.14 0.78,0.78 0 0 0 71.4,24.89 0.93,0.93 0 0 0 71,24.8 a 1.24,1.24 0 0 0 -0.45,0.09 0.78,0.78 0 0 0 -0.37,0.28 0.75,0.75 0 0 0 -0.15,0.49 v 2.76 z" id="path1433"/><path class="cls-2" d="m 77.34,28 a 1.31,1.31 0 0 0 0.44,-0.07 1.71,1.71 0 0 0 0.4,-0.22 1.21,1.21 0 0 0 0.29,-0.31 0.67,0.67 0 0 0 0.12,-0.34 v -0.73 h -0.66 a 3.11,3.11 0 0 0 -0.84,0.11 1,1 0 0 0 -0.49,0.28 0.76,0.76 0 0 0 -0.16,0.51 0.66,0.66 0 0 0 0.25,0.56 1,1 0 0 0 0.65,0.2 m -0.17,0.46 A 1.56,1.56 0 0 1 76.47,28.31 1,1 0 0 1 76,28 1.19,1.19 0 0 1 75.83,27.37 1.13,1.13 0 0 1 76.29,26.37 2.79,2.79 0 0 1 77.8,26 h 0.79 v -0.34 a 0.88,0.88 0 0 0 -0.24,-0.64 1.1,1.1 0 0 0 -0.75,-0.23 1.21,1.21 0 0 0 -0.66,0.18 0.8,0.8 0 0 0 -0.35,0.56 H 76 a 1.27,1.27 0 0 1 0.22,-0.66 1.34,1.34 0 0 1 0.54,-0.41 2.38,2.38 0 0 1 0.84,-0.14 2.12,2.12 0 0 1 0.85,0.15 1,1 0 0 1 0.52,0.44 1.33,1.33 0 0 1 0.18,0.72 v 2.84 H 78.62 V 27.68 A 1.48,1.48 0 0 1 78,28.36 1.89,1.89 0 0 1 77.18,28.54" id="path1435"/><path class="cls-2" d="m 82.17,24.81 h -0.92 v 2.62 a 1,1 0 0 0 0,0.35 0.21,0.21 0 0 0 0.16,0.13 1.27,1.27 0 0 0 0.32,0 h 0.42 v 0.43 a 0.87,0.87 0 0 1 -0.22,0 1.94,1.94 0 0 1 -0.36,0 1.37,1.37 0 0 1 -0.6,-0.11 0.61,0.61 0 0 1 -0.3,-0.33 1.38,1.38 0 0 1 -0.09,-0.54 V 24.81 H 80 v -0.46 h 0.68 l 0.14,-1.18 h 0.46 v 1.17 h 0.92 z" id="path1437"/><path class="cls-2" d="m 83.08,28.42 h 0.6 v -4.07 h -0.6 z m 0,-5 h 0.64 v -0.68 h -0.64 z" id="path1439"/><polygon class="cls-2" points="100.29,40.42 99.62,40.42 98.3,38.3 97.42,39.2 97.42,40.42 96.81,40.42 96.81,34.57 97.42,34.57 97.42,38.48 99.45,36.35 100.17,36.35 98.71,37.88 " id="polygon1441" transform="translate(-12,-12)"/><path class="cls-2" d="m 89.54,29.71 a 1.64,1.64 0 0 1 -0.58,-0.09 v -0.4 h 0.41 a 1.31,1.31 0 0 0 0.37,0 0.75,0.75 0 0 0 0.24,-0.1 0.7,0.7 0 0 0 0.14,-0.16 l 0.09,-0.17 0.16,-0.42 -1.59,-4 h 0.62 l 1.26,3.27 1.25,-3.27 h 0.6 l -1.73,4.45 a 1.78,1.78 0 0 1 -0.33,0.55 1,1 0 0 1 -0.41,0.28 1.35,1.35 0 0 1 -0.5,0.08" id="path1443"/><path class="cls-2" d="m 48.64,5.05 -0.85,-0.8 h 0.64 l 0.48,0.47 0.45,-0.47 H 50 l -0.83,0.8 z M 47,10.19 V 9.79 L 49.49,6.13 H 47.14 V 5.45 h 3.49 V 5.84 L 48.1,9.51 h 2.5 v 0.68 z" id="path1445"/><rect class="cls-2" x="51.380001" y="5.4500008" width="0.80000001" height="4.7399998" id="rect1447"/><polygon class="cls-2" points="65.29,17.45 66.09,17.45 66.09,21.5 68.23,21.5 68.23,22.19 65.28,22.19 " id="polygon1449" transform="translate(-12,-12)"/><rect class="cls-2" x="56.980003" y="5.4500008" width="0.80000001" height="4.7399998" id="rect1451"/><polygon class="cls-2" points="74.78,22.19 74.06,22.19 71.68,18.71 71.68,22.19 70.88,22.19 70.88,17.45 71.66,17.45 73.98,20.84 73.98,17.45 74.78,17.45 " id="polygon1453" transform="translate(-12,-12)"/><path class="cls-2" d="M 65.56,10.26 A 2.52,2.52 0 0 1 64.89,10.17 2,2 0 0 1 64.29,9.91 1.39,1.39 0 0 1 63.85,9.48 1.31,1.31 0 0 1 63.63,8.88 h 0.83 a 0.77,0.77 0 0 0 0.21,0.41 1.14,1.14 0 0 0 0.38,0.25 1.6,1.6 0 0 0 0.51,0.08 A 1.78,1.78 0 0 0 66.09,9.54 0.9,0.9 0 0 0 66.47,9.31 0.53,0.53 0 0 0 66.61,8.94 0.52,0.52 0 0 0 66.5,8.61 0.71,0.71 0 0 0 66.22,8.39 2.07,2.07 0 0 0 65.8,8.25 L 64.92,8.06 A 1.53,1.53 0 0 1 64.09,7.64 1.15,1.15 0 0 1 63.77,6.81 1.3,1.3 0 0 1 64,6.06 a 1.63,1.63 0 0 1 0.63,-0.49 2.21,2.21 0 0 1 0.91,-0.18 2.27,2.27 0 0 1 1,0.2 1.37,1.37 0 0 1 0.62,0.51 1.33,1.33 0 0 1 0.21,0.7 H 66.56 A 0.9,0.9 0 0 0 66.39,6.35 0.79,0.79 0 0 0 66.04,6.11 1.85,1.85 0 0 0 65.56,6.04 a 1.44,1.44 0 0 0 -0.37,0.05 1,1 0 0 0 -0.3,0.13 0.7,0.7 0 0 0 -0.2,0.22 0.64,0.64 0 0 0 -0.07,0.28 0.48,0.48 0 0 0 0.16,0.38 1.41,1.41 0 0 0 0.57,0.24 l 0.85,0.19 a 1.91,1.91 0 0 1 0.64,0.23 1.41,1.41 0 0 1 0.37,0.36 1.28,1.28 0 0 1 0.17,0.41 1.94,1.94 0 0 1 0,0.4 1.11,1.11 0 0 1 -0.22,0.68 1.52,1.52 0 0 1 -0.65,0.47 2.42,2.42 0 0 1 -1,0.18" id="path1455"/><polygon class="cls-2" points="84.13,22.19 83.25,22.19 81.89,19.88 81.14,20.77 81.14,22.19 80.31,22.19 80.31,17.45 81.14,17.45 81.14,19.75 83.04,17.45 83.97,17.45 82.47,19.3 " id="polygon1457" transform="translate(-12,-12)"/><path class="cls-2" d="M 75.17,4.1 H 76 L 75.06,5.05 H 74.5 Z m -1.09,4.19 h 1.43 L 74.8,6.23 Z m -1.42,1.9 1.71,-4.74 h 0.86 l 1.7,4.74 h -0.8 L 75.71,9 H 73.9 l -0.44,1.19 z" id="path1459"/><path class="cls-2" d="m 82.69,8.46 a 2.21,2.21 0 0 1 -0.19,1 1.29,1.29 0 0 1 -0.58,0.62 2.3,2.3 0 0 1 -1.06,0.21 A 2.17,2.17 0 0 1 79.8,10 1.27,1.27 0 0 1 79.22,9.37 a 2.43,2.43 0 0 1 -0.18,-1 v -3 h 0.82 V 8.5 A 1.07,1.07 0 0 0 80.13,9.31 1,1 0 0 0 80.86,9.57 1.13,1.13 0 0 0 81.4,9.46 0.81,0.81 0 0 0 81.76,9.11 1.35,1.35 0 0 0 81.88,8.5 V 5.45 h 0.81 z" id="path1461"/><polygon class="cls-2" points="99.62,22.19 98.91,22.19 96.52,18.71 96.52,22.19 95.72,22.19 95.72,17.45 96.5,17.45 98.83,20.84 98.83,17.45 99.62,17.45 " id="polygon1463" transform="translate(-12,-12)"/><rect class="cls-2" x="88.730003" y="5.4500008" width="0.80000001" height="4.7399998" id="rect1465"/><polygon class="cls-2" points="104.31,21.27 105.65,17.45 106.42,17.45 104.77,22.19 103.84,22.19 102.21,17.45 102.98,17.45 " id="polygon1467" transform="translate(-12,-12)"/><polygon class="cls-2" points="107.11,22.19 107.11,17.45 110.24,17.45 110.24,18.14 107.91,18.14 107.91,19.47 109.97,19.47 109.97,20.14 107.9,20.14 107.9,21.5 110.29,21.5 110.29,22.19 " id="polygon1469" transform="translate(-12,-12)"/><path class="cls-2" d="m 100.88,7.64 a 1.06,1.06 0 0 0 0.7,-0.21 0.73,0.73 0 0 0 0.26,-0.59 0.72,0.72 0 0 0 -0.24,-0.57 0.92,0.92 0 0 0 -0.62,-0.2 h -1 v 1.57 z m 1.8,2.55 h -0.83 L 101,8.27 h -1.1 v 1.92 H 99.1 V 5.45 h 1.93 a 2.16,2.16 0 0 1 0.9,0.17 1.15,1.15 0 0 1 0.52,0.48 1.46,1.46 0 0 1 0.17,0.71 1.35,1.35 0 0 1 -0.13,0.64 1.23,1.23 0 0 1 -0.32,0.42 1.54,1.54 0 0 1 -0.42,0.26 z" id="path1471"/><polygon class="cls-2" points="117.89,18.13 115.53,18.13 115.53,17.45 119.02,17.45 119.02,17.84 116.5,21.51 118.99,21.51 118.99,22.19 115.39,22.19 115.39,21.79 " id="polygon1473" transform="translate(-12,-12)"/><rect class="cls-2" x="107.77" y="5.4500008" width="0.80000001" height="4.7399998" id="rect1475"/><polygon class="cls-2" points="123.53,18.17 123.53,22.19 122.73,22.19 122.73,18.17 121.25,18.17 121.25,17.45 124.95,17.45 124.95,18.17 " id="polygon1477" transform="translate(-12,-12)"/><path class="cls-2" d="m 114.19,8.29 h 1.43 l -0.71,-2.06 z m -1.42,1.9 1.7,-4.74 h 0.87 l 1.7,4.74 h -0.8 L 115.82,9 H 114 l -0.44,1.19 z" id="path1479"/><polygon class="cls-2" points="132.81,21.27 134.16,17.45 134.93,17.45 133.28,22.19 132.35,22.19 130.72,17.45 131.49,17.45 " id="polygon1481" transform="translate(-12,-12)"/><path class="cls-2" d="m 126.4,5.05 -0.84,-0.8 h 0.63 l 0.49,0.47 0.44,-0.47 h 0.67 l -0.83,0.8 z m -1.63,5.14 v -0.4 l 2.49,-3.66 h -2.35 V 5.45 h 3.48 v 0.39 l -2.52,3.67 h 2.5 v 0.68 z" id="path1483"/><rect class="cls-2" x="129.14999" y="5.4500008" width="0.80000001" height="4.7399998" id="rect1485"/><polygon class="cls-2" points="143.05,17.45 143.86,17.45 143.86,21.5 146,21.5 146,22.19 143.05,22.19 " id="polygon1487" transform="translate(-12,-12)"/><rect class="cls-2" x="134.75" y="5.4500008" width="0.80000001" height="4.7399998" id="rect1489"/><polygon class="cls-2" points="152.54,22.19 151.83,22.19 149.44,18.71 149.44,22.19 148.65,22.19 148.65,17.45 149.43,17.45 151.75,20.84 151.75,17.45 152.54,17.45 " id="polygon1491" transform="translate(-12,-12)"/><polygon class="cls-2" points="153.65,22.19 153.65,17.45 156.79,17.45 156.78,18.14 154.46,18.14 154.46,19.47 156.51,19.47 156.51,20.14 154.45,20.14 154.45,21.5 156.83,21.5 156.83,22.19 " id="polygon1493" transform="translate(-12,-12)"/><rect class="cls-2" x="39.029999" y="4.25" width="0.46000001" height="24.17" id="rect1495"/><path class="cls-2" d="M 31,23.09 C 24.55,18.09 26.06,12.4 27.17,8.28 V 8.21 A 12.52,12.52 0 0 0 27.82,4.43 2.57,2.57 0 0 0 27,2.68 1.92,1.92 0 0 0 25.56,2.18 2.85,2.85 0 0 0 24.4,2.5 C 15.2,7.19 9.83,6.92 6.62,6.76 H 6.52 C 5.24,6.7 3.52,6.61 2.64,7.41 A 1.49,1.49 0 0 0 2.17,8.55 3.32,3.32 0 0 0 3,10.1 c 4.56,5.48 4.75,13.71 4.82,16.81 a 8.75,8.75 0 0 0 0.06,1.19 2.85,2.85 0 0 0 2.83,2.42 2.89,2.89 0 0 0 1.92,-0.74 c 3.88,-3.6 9.64,-3.85 13.88,-4 a 22.47,22.47 0 0 0 4,-0.38 h 0.11 A 1.28,1.28 0 0 0 31.54,24.18 1.25,1.25 0 0 0 31,23.09 Z M 27.38,4.49 a 12,12 0 0 1 -0.63,3.6 v 0.07 c -0.73,2.73 -1.63,6.1 -0.41,9.54 A 26.61,26.61 0 0 0 20.9,12.39 c 4.81,-5.45 5.8,-8.13 6,-9.18 a 2.13,2.13 0 0 1 0.49,1.28 z M 24.6,2.91 a 2.35,2.35 0 0 1 1,-0.27 1.43,1.43 0 0 1 0.86,0.21 c 0,0.49 -0.4,3 -5.93,9.27 A 30,30 0 0 0 9.2,7.29 C 12.55,7.24 17.42,6.57 24.61,2.91 Z M 2.6,8.55 A 1.08,1.08 0 0 1 2.92,7.74 3.7,3.7 0 0 1 5.3,7.18 c 0.41,0 0.82,0 1.16,0 h 0.1 a 29.51,29.51 0 0 1 13.74,5.11 c -1,1.15 -2.23,2.43 -3.64,3.86 A 33.6,33.6 0 0 0 13.49,19.82 53.46,53.46 0 0 1 4.14,10.9 13.09,13.09 0 0 0 3.28,9.76 2.77,2.77 0 0 1 2.63,8.55 Z M 8.29,28 A 10.22,10.22 0 0 1 8.24,26.89 C 8.18,24.22 8.02,17.79 5.11,12.48 a 51.87,51.87 0 0 0 8.24,7.6 C 9.67,25.15 9.68,28.75 9.81,29.89 A 2.45,2.45 0 0 1 8.29,28 Z m 4,1.44 a 2.42,2.42 0 0 1 -1.6,0.61 2.31,2.31 0 0 1 -0.37,0 c -0.11,-0.73 -0.38,-4.39 3.43,-9.67 a 26.19,26.19 0 0 0 12.22,5 c -4.25,0.12 -9.83,0.48 -13.7,4.07 z M 30.5,24.88 h -0.08 a 8.58,8.58 0 0 1 -1,0.18 c -5.14,0.31 -10.31,-1.34 -15.46,-5 A 31.54,31.54 0 0 1 17,16.51 c 1.42,-1.44 2.64,-2.74 3.69,-3.92 a 26.18,26.18 0 0 1 6.18,6.41 13.57,13.57 0 0 0 3.88,4.52 0.81,0.81 0 0 1 -0.27,1.42 z" id="path1497"/></svg>
